<svg version="1.1" xmlns="http://www.w3.org/2000/svg" viewBox="0 0 2048 2048" width="1000" height="1000" preserveAspectRatio="none" display="block"><path fill="#16b9ce" d="M 0 0 L 2048 0 L 2048 1314.14 L 2048 1362.34 L 2048 1428.28 L 2048 1477.19 L 2048 2048 L 0 2048 L 0 1476.91 L 0 1428.15 L 0 1362.03 L 0 1313.99 L 0 0 z" data-c-fill="16b9ce" fill-opacity="1"/><path fill="#1090b6" d="M 1467.47 704.386 C 1474.44 703.289 1491.15 716.758 1497.35 720.571 C 1518.03 733.287 1529.35 759.289 1532.36 782.577 C 1546.39 891.323 1475.71 993.485 1377.94 1036.3 C 1341.32 1052.33 1306.7 1060.03 1268.07 1068.76 C 1238.97 1075.18 1209.91 1081.83 1180.91 1088.7 C 1161.18 1093.36 1141.12 1097.36 1122.21 1104.07 C 1105.35 1110.04 1098.48 1123.47 1098.51 1140.51 C 1098.66 1213.58 1097.82 1287.97 1098.94 1360.98 L 1112.11 1360.9 C 1128.34 1327.43 1142.29 1292.31 1158.03 1258.56 C 1167.3 1238.68 1179.24 1204.4 1192.06 1187.7 C 1201.28 1175.45 1213.95 1166.23 1228.44 1161.21 C 1272.13 1146.39 1318.2 1169.06 1332.1 1213.37 C 1346.33 1258.75 1353.84 1311.72 1370.1 1356.05 C 1375.67 1332.14 1380.25 1304.59 1384.86 1280.27 L 1405.92 1169.85 C 1411.78 1138.19 1416.8 1096.4 1428.95 1067.23 C 1443.26 1032.87 1487.73 1018 1522.34 1026.93 C 1579.02 1041.54 1583.2 1102.04 1596.43 1150.91 L 1624.19 1250.69 C 1631.37 1277.24 1639.78 1311.31 1648.32 1337.09 C 1683.65 1311.01 1706.69 1314.03 1748.94 1314.04 L 1818.74 1314.18 C 1895.16 1314.67 1971.58 1314.66 2048 1314.14 L 2048 1362.34 L 2048 1428.28 L 2048 1477.19 L 2048 2048 L 0 2048 L 0 1476.91 L 0 1428.15 L 0 1362.03 L 0 1313.99 L 301.885 1313.91 C 311.363 1295.81 321.42 1277.01 330.64 1258.86 C 347.965 1224.75 357.223 1191.3 397.982 1178.27 C 418.532 1171.7 440.858 1173.63 459.971 1183.64 C 505.47 1207.56 503.123 1253.02 523.966 1294.08 C 529.414 1279.25 533.645 1263.02 538.567 1247.84 L 578.449 1124.48 C 584.37 1106.41 589.477 1083.81 598.436 1067.56 C 630.742 1008.98 719.022 1013.18 744.264 1075.68 C 755.216 1103.1 764.736 1131.41 775.037 1159.18 C 796.764 1218.27 819.107 1277.13 842.061 1335.76 C 884.703 1336.67 895.52 1342.04 934.688 1350.24 C 934.769 1352.87 934.555 1357.8 935.652 1359.77 L 935.797 1069.63 L 935.832 989.764 C 935.782 950.701 933.124 913.711 952.972 878.89 C 980.532 830.538 1024.12 818.764 1075.01 809.014 C 1089.33 806.271 1105 802.424 1119.47 799.153 C 1201.46 780.615 1283.42 761.849 1365.21 742.43 C 1388.87 736.799 1412.66 729.729 1435.51 721.467 C 1443.91 718.428 1462.79 705.688 1467.47 704.386 z" data-c-fill="1090b6" fill-opacity="1"/><path fill="#16b9ce" d="M 0 1476.91 L 232.128 1476.52 L 306.773 1476.54 C 349.482 1476.45 377.788 1479.67 411.222 1448.52 C 422.611 1475.22 431.454 1505.97 442.579 1533.16 C 449.767 1550.73 454.11 1567.43 465.868 1583.08 C 474.72 1595.08 486.806 1604.32 500.711 1609.7 C 517.567 1616.36 531.466 1615.63 548.842 1612.51 C 559.082 1760.06 687.615 1846.35 828.737 1836.1 C 907.441 1830.24 980.688 1793.68 1032.67 1734.3 C 1069.66 1691.68 1092.59 1638.69 1098.32 1582.55 C 1100.27 1562.83 1099.94 1541.73 1099.9 1521.9 C 1162.13 1520.09 1196.04 1533.7 1236.79 1477.97 L 1286.17 1663.23 C 1291.61 1683.46 1296.85 1703.81 1302.1 1724.09 C 1308.35 1748.22 1319.42 1767.32 1341.49 1780.03 C 1360.39 1790.88 1382.81 1793.81 1403.86 1788.19 C 1423.94 1782.67 1441.06 1769.49 1451.53 1751.48 C 1455.33 1744.65 1458.29 1737.37 1460.33 1729.82 C 1465.35 1711.4 1469.1 1683.54 1473.16 1663.77 C 1487.46 1594.1 1499.6 1523.72 1514.32 1454.1 C 1520.78 1474.4 1526.88 1494.81 1532.62 1515.32 C 1543.16 1553.45 1548.72 1594.89 1586.86 1614.64 C 1606.32 1624.72 1631.18 1626.5 1651.9 1619.73 C 1663.6 1615.96 1674.18 1609.36 1682.7 1600.52 C 1692.39 1590.28 1700.49 1573.79 1707.12 1561.23 C 1714.98 1546.43 1722.76 1531.59 1730.46 1516.7 C 1737.02 1503.84 1744.08 1488.96 1751.93 1476.9 L 2048 1477.19 L 2048 2048 L 0 2048 L 0 1476.91 z" data-c-fill="16b9ce" fill-opacity="1"/><path fill="#ffffff" d="M 935.652 1359.77 L 935.797 1069.63 L 935.832 989.764 C 935.782 950.701 933.124 913.711 952.972 878.89 C 980.532 830.538 1024.12 818.764 1075.01 809.014 C 1089.33 806.271 1105 802.424 1119.47 799.153 C 1201.46 780.615 1283.42 761.849 1365.21 742.43 C 1388.87 736.799 1412.66 729.729 1435.51 721.467 C 1443.91 718.428 1462.79 705.688 1467.47 704.386 L 1472.52 715.339 C 1471.76 722.341 1470.88 732.025 1469.13 738.639 C 1460.33 771.932 1436.03 800.015 1409.69 821.067 C 1358.05 862.332 1298.4 874.81 1236.12 888.711 C 1211.62 894.139 1187.19 899.899 1162.85 905.989 C 1133.73 913.159 1105.97 918.476 1080.9 935.901 C 1053.87 954.697 1031.49 995.618 1029.01 1028.17 C 1027.45 1048.64 1024.1 1088.43 1030.53 1106.61 C 1027.11 1121.2 1028.06 1151.38 1028.06 1167.36 L 1028.11 1251.65 L 1028.34 1346.05 C 1028.37 1359.99 1027.65 1379.61 1028.42 1393.09 C 1020.83 1407.37 1014.82 1441.09 1009.45 1459.36 C 966.438 1605.81 797.471 1725.44 651.443 1636.06 C 640.817 1629.55 631.06 1621.63 621.001 1614.01 C 616.299 1513.36 692.565 1435.62 786.853 1413.78 C 840.024 1401.46 886.731 1409.37 935.515 1431.26 C 936.325 1408.82 935.956 1382.23 935.652 1359.77 z" data-c-fill="fefefe" fill-opacity="1"/><path fill="#bcf4f8" d="M1377.17 1567C1388.82 1514.46 1398.5 1458.99 1408.44 1406.06L1452.27 1180.61C1456.14 1161.56 1459.33 1142.37 1463.13 1123.32 1467.08 1103.56 1468.01 1079.52 1490.8 1072.46 1499.76 1069.68 1509.47 1070.73 1517.64 1075.35 1523.74 1078.87 1529.54 1085.59 1531.45 1092.35 1544.07 1136.98 1557.09 1182.14 1568.98 1226.94 1590.09 1304.54 1611.7 1381.99 1633.82 1459.31 1646.93 1434.79 1659.14 1409.7 1672.43 1385.2 1688.18 1356.18 1709.47 1362.2 1738.14 1362.26L1807.9 1362.36 2048 1362.34 2048 1428.28C1941.11 1426.88 1831.76 1428.22 1724.61 1428.08 1697.97 1473.05 1676.87 1523.19 1648.75 1567.35 1646.61 1570.72 1638.31 1574.81 1634.56 1575.96 1625.53 1578.74 1615.75 1577.61 1607.59 1572.85 1592.63 1564.16 1588.78 1541.1 1584.19 1525.22L1568.97 1472 1506.98 1246.23C1503.98 1257.68 1501.21 1274.06 1498.9 1285.92L1483.56 1366.46 1436.98 1605.13C1432.55 1628.39 1419.88 1709.91 1410.48 1727.33 1406.39 1734.91 1398.9 1740.31 1390.6 1742.38 1381.89 1744.5 1372.69 1743.06 1365.05 1738.38 1348.45 1728.39 1344.07 1698.11 1339.25 1679.92L1319.59 1605.98C1295 1514.99 1270.99 1423.85 1247.55 1332.56 1238.76 1356.23 1200.79 1450.37 1186.36 1464.43 1183.39 1467.32 1179.78 1470.12 1175.82 1471.48 1159.75 1477 1116.88 1474.06 1098.12 1473.98L1097.87 1408.82 1142.69 1408.92C1163.94 1363.88 1182.93 1316.3 1204.07 1271.02 1211.32 1255.5 1217.86 1239.16 1225.31 1223.79 1230.01 1214.09 1236.19 1207.25 1246.95 1204.27 1255.93 1201.78 1265.55 1203.23 1273.4 1208.26 1288.91 1218.11 1293.02 1250.29 1297.82 1267.99 1307 1300.86 1315.82 1333.83 1324.28 1366.89L1361.65 1510.13C1366.69 1529.2 1372.4 1547.81 1377.17 1567zM527.898 1439.04 606.232 1192.28C613.696 1169.23 620.378 1145.57 628.406 1122.76 634.295 1106.02 638.022 1083.37 654.886 1074.85 662.828 1070.81 672.073 1070.17 680.491 1073.1 691.269 1076.91 697.279 1084.68 701.286 1094.9 713.155 1125.18 724.458 1156.41 735.727 1186.88L792.93 1340.55C768.195 1344.55 753.137 1347.83 729.032 1355.67 710.567 1304.36 689.047 1254.25 671.915 1202.04 653.574 1261.84 634.766 1321.5 615.493 1381.01 606.211 1409.7 596.996 1439.32 587.314 1467.87 579.872 1484.79 570.276 1500.3 563.278 1517.49 560.451 1524.43 553.705 1555.88 551.243 1558.59 532.184 1579.54 505.652 1565.48 496.938 1542.89 475.197 1486.54 454.384 1432.22 434.232 1375.45 429.305 1361.74 424.526 1346.58 419.049 1333.24 410.941 1348.35 402.955 1363.53 395.091 1378.77 387.861 1392.64 373.15 1425.21 357.394 1426.47 320.91 1429.37 276.182 1428.04 239.348 1428L0 1428.15 0 1362.03 219.663 1361.93C255.46 1361.91 294.126 1361.28 329.643 1362.16 344.476 1335.13 357.632 1307 372.205 1279.91 381.5 1262.64 393.993 1227.82 413.317 1221.97 422.253 1219.31 431.893 1220.47 439.935 1225.19 454.95 1234.11 466.021 1272.13 472.186 1288.82L506.506 1382.17C511.838 1396.86 521.591 1425.66 527.898 1439.04zM1472.52 715.339C1490 756.881 1484.48 807.033 1467.91 847.972 1445.08 903.715 1401.08 948.134 1345.56 971.494 1308.94 986.888 1270.09 993.882 1231.46 1002.43 1204.16 1008.47 1177.06 1015.91 1149.87 1022.12 1102.9 1032.84 1056.78 1038.93 1035.89 1089.22 1033.6 1094.85 1031.8 1100.67 1030.53 1106.61 1024.1 1088.43 1027.45 1048.64 1029.01 1028.17 1031.49 995.618 1053.87 954.697 1080.9 935.901 1105.97 918.476 1133.73 913.159 1162.85 905.989 1187.19 899.899 1211.62 894.139 1236.12 888.711 1298.4 874.81 1358.05 862.332 1409.69 821.067 1436.03 800.015 1460.33 771.932 1469.13 738.639 1470.88 732.025 1471.76 722.341 1472.52 715.339zM1028.42 1393.09C1030.3 1421.97 1028.67 1457.63 1029.04 1486.96 1030.06 1566.59 1035.04 1623.19 978.115 1687.97 937.688 1733.56 880.74 1761.12 819.909 1764.55 724.287 1770.33 629.512 1716.08 621.001 1614.01 631.06 1621.63 640.817 1629.55 651.443 1636.06 797.471 1725.44 966.438 1605.81 1009.45 1459.36 1014.82 1441.09 1020.83 1407.37 1028.42 1393.09z" data-c-fill="bcf4f8" fill-opacity="1"/><path fill="#16b9ce" d="M 674.975 1347.53 C 678.205 1350.36 685.515 1370.75 687.525 1375.96 L 667.551 1388.86 C 666.901 1389.39 660.898 1392.98 659.86 1393.62 C 664.73 1378.2 669.769 1362.84 674.975 1347.53 z" data-c-fill="16b9ce" fill-opacity="1"/><path fill="#ffffff" d="M 365.225 239.008 L 514.724 239.044 C 550.339 239.039 583.038 237.801 618.574 242.885 C 683.32 252.15 732.557 294.683 719.878 364.352 C 714.346 394.754 697.672 411.97 673.014 428.894 C 675.511 430.139 677.997 431.407 680.47 432.699 C 736.309 461.949 757.797 522.309 728.014 578.737 C 723.725 585.895 718.556 592.486 712.627 598.357 C 665.377 645.298 577.176 636.593 514.86 636.41 L 365.213 636.785 L 365.225 239.008 z" data-c-fill="fefefe" fill-opacity="1"/><path fill="#16b9ce" d="M459.942 470.146C487.758 470.815 515.47 470.235 543.704 470.396 581.814 470.682 645.747 463.524 644.244 519.856 643.861 534.215 640.818 540.623 630.801 550.528 608.535 567.586 569.941 563.931 542.891 563.877L459.999 563.916C459.581 532.957 459.947 501.171 459.942 470.146zM459.967 311.933 531.177 311.833C564.296 311.802 624.238 305.063 626.121 352.522 626.682 366.656 623.714 375.783 614.207 386.196 594.834 400.97 563.125 398.267 539.698 398.411 513.134 398.572 486.569 398.524 460.006 398.268L459.967 311.933z" data-c-fill="16b9ce" fill-opacity="1"/><path fill="#ffffff" d="M1225.12 239.023 1308.9 239.04C1358.92 318.038 1406.97 401.043 1457.47 479.292 1475.06 451.459 1492.3 421.487 1509.31 393.16 1540.15 341.645 1571.25 290.294 1602.64 239.111L1686.06 239.202 1686.29 636.635C1656.49 637.051 1625.96 636.7 1596.1 636.678L1596.03 543.75 1596.1 400.547C1592.47 405.763 1589.12 411.439 1585.74 416.839 1549.65 474.396 1516.02 533.425 1479.96 590.993 1464.42 590.859 1448.88 590.871 1433.34 591.029 1411.03 554.273 1387.37 517.75 1364.8 481.095 1348.62 454.816 1332.53 428.052 1315.98 402.053 1316.04 479.583 1315.05 559.414 1316.34 636.749L1225.2 636.828C1224.23 596.506 1225.07 552.685 1225.06 512.145L1225.12 239.023zM806.908 239.084 938.732 239.018C971.666 239.007 1002.15 237.932 1034.23 242.425 1110.36 253.261 1165.81 309.348 1160.97 388.502 1156.42 462.904 1111.64 503.515 1041.23 519.094 1003.91 525.609 942.685 523.572 903.048 523.601 903.604 561.219 902.657 598.954 903.716 636.591L806.986 636.526 806.908 239.084z" data-c-fill="fefefe" fill-opacity="1"/><path fill="#16b9ce" d="M 903.13 314.909 L 956.708 314.667 C 985.269 314.587 1021.94 311.41 1044.26 332.166 C 1071.33 357.341 1071.38 401.067 1046.74 427.7 C 1020.7 449.434 989.929 446.289 957.749 446.164 L 903.738 446.181 C 902.28 404.196 903.204 357.224 903.13 314.909 z" data-c-fill="16b9ce" fill-opacity="1"/><path fill="#bcf4f8" d="M 747.608 752.409 C 788.016 750.439 840.608 762.841 841.134 815.428 C 841.312 833.175 828.964 847.585 816.23 858.888 C 819.392 860.979 822.502 863.148 825.558 865.392 C 851.671 884.884 857.646 919.36 836.888 945.184 C 819.451 966.876 796.773 972.709 770.279 975.863 C 718.545 978.126 653.809 960.349 669.473 892.542 C 673.2 876.41 684.916 867.451 698.501 859.51 C 663.044 830.297 663.358 789.671 703.57 764.377 C 716.877 756.007 732.103 753.716 747.608 752.409 z" data-c-fill="bcf4f8" fill-opacity="1"/><path fill="#16b9ce" d="M749.242 877.284C804.038 871.818 818.867 926.399 768.23 937.944 747.95 940.12 721.264 936.373 716.556 912.283 715.139 905.283 716.626 898.007 720.677 892.125 727.446 882.329 738.164 878.98 749.242 877.284zM757.562 788.416C765.091 788.399 773.077 789.783 779.424 793.652 797.978 804.963 796.088 832.225 774.984 839.309 770.483 840.819 765.909 841.334 761.316 842.018 751.189 842.08 741.037 841.02 732.834 834.486 727.465 830.294 724.105 824.038 723.576 817.247 722.992 810.442 725.302 803.706 729.94 798.692 737.712 790.305 747.014 789.044 757.562 788.416z" data-c-fill="16b9ce" fill-opacity="1"/><path fill="#bcf4f8" d="M546.73 752.419C591.539 747.144 639.264 770.468 637.507 821.007 636.317 855.243 612.647 873.63 589.288 895.33L550.761 931.092 643.953 931.306 643.969 972.241 524.139 972.127C509.475 972.32 494.809 972.351 480.144 972.219L480.056 939.781C500.139 917.809 525.343 896.938 546.94 876.182 557.689 865.498 571.021 855.225 579.623 842.694 596.746 817.748 584.448 790.824 552.946 792.396 530.046 793.539 522.094 800.906 507.369 816.289 497.015 809.024 482.424 800.516 471.296 793.284 471.729 792.722 472.171 792.167 472.622 791.618 494.987 764.717 512.194 755.348 546.73 752.419zM347.091 755.458C377.961 755.014 409.636 755.345 440.57 755.311L440.608 972.503C424.388 972.815 407.359 972.558 391.075 972.564L391.194 795.799 347.03 795.821 347.091 755.458z" data-c-fill="bcf4f8" fill-opacity="1"/></svg>